HIERARCHY
ROOT hip
{
  OFFSET 0.00112043 5.09927 -9.65472
  CHANNELS 6 Xposition Yposition Zposition Zrotation Xrotation Yrotation
  JOINT abdomen
  {
    OFFSET 0 -1.186 -1.5018
    CHANNELS 3 Zrotation Xrotation Yrotation
    JOINT abdomen2
    {
      OFFSET 0 9.964 0.2134
      CHANNELS 3 Zrotation Xrotation Yrotation
      JOINT chest
      {
        OFFSET 0 13.134 -3.2573
        CHANNELS 3 Zrotation Xrotation Yrotation
        JOINT neck
        {
          OFFSET 0 20.686 -1.6905
          CHANNELS 3 Zrotation Xrotation Yrotation
          JOINT head
          {
            OFFSET 0 7.238 -0.1237
            CHANNELS 3 Zrotation Xrotation Yrotation
            End Site
            {
              OFFSET 0 0 0
            }
          }
        }
        JOINT lCollar
        {
          OFFSET 1.7069 20.075 5.0056
          CHANNELS 3 Zrotation Xrotation Yrotation
          JOINT lShldr
          {
            OFFSET 13.6458 -0.047 -4.849
            CHANNELS 3 Zrotation Xrotation Yrotation
            JOINT lForeArm
            {
              OFFSET 28.3255 -0.9759 2.2888
              CHANNELS 3 Zrotation Xrotation Yrotation
              JOINT lHand
              {
                OFFSET 22.1583 -0.53 10.8316
                CHANNELS 3 Zrotation Xrotation Yrotation
                JOINT lThumb1
                {
                  OFFSET 0.786 0.112 2.5817
                  CHANNELS 3 Zrotation Xrotation Yrotation
                  JOINT lThumb2
                  {
                    OFFSET 0.3601 -0.878 4.2331
                    CHANNELS 3 Zrotation Xrotation Yrotation
                    JOINT lThumb2_End
                    {
                      OFFSET 1.8127 -1.216 2.2227
                      CHANNELS 3 Zrotation Xrotation Yrotation
                      End Site
                      {
                        OFFSET 0.0181 -0.0122 0.0222
                      }
                    }
                  }
                }
                JOINT lCarpal1
                {
                  OFFSET 0.9571 1.114 1.7695
                  CHANNELS 3 Zrotation Xrotation Yrotation
                  JOINT lIndex1
                  {
                    OFFSET 4.1246 0.487 4.1451
                    CHANNELS 3 Zrotation Xrotation Yrotation
                    JOINT lIndex2
                    {
                      OFFSET 3.4052 -1.454 2.7682
                      CHANNELS 3 Zrotation Xrotation Yrotation
                      JOINT lIndex2_End
                      {
                        OFFSET 1.4531 -1.795 1.2713
                        CHANNELS 3 Zrotation Xrotation Yrotation
                        End Site
                        {
                          OFFSET 0.0145 -0.0179 0.0127
                        }
                      }
                    }
                  }
                  JOINT lMid1
                  {
                    OFFSET 5.6954 0.21 2.1184
                    CHANNELS 3 Zrotation Xrotation Yrotation
                    JOINT lMid2
                    {
                      OFFSET 3.9766 -1.54 2.3863
                      CHANNELS 3 Zrotation Xrotation Yrotation
                      JOINT lMid2_End
                      {
                        OFFSET 1.4042 -1.926 1.125
                        CHANNELS 3 Zrotation Xrotation Yrotation
                        End Site
                        {
                          OFFSET 0.014 -0.0193 0.0113
                        }
                      }
                    }
                  }
                }
                JOINT lCarpal2
                {
                  OFFSET 2.0956 0.66 -0.3894
                  CHANNELS 3 Zrotation Xrotation Yrotation
                  JOINT lRing1
                  {
                    OFFSET 5.0395 -0.09 2.4971
                    CHANNELS 3 Zrotation Xrotation Yrotation
                    JOINT lRing2
                    {
                      OFFSET 3.7921 -1.552 1.4806
                      CHANNELS 3 Zrotation Xrotation Yrotation
                      JOINT lRing2_End
                      {
                        OFFSET 1.4655 -1.808 0.9609
                        CHANNELS 3 Zrotation Xrotation Yrotation
                        End Site
                        {
                          OFFSET 0.0147 -0.0181 0.0096
                        }
                      }
                    }
                  }
                  JOINT lPinky1
                  {
                    OFFSET 4.9141 -1.269 0.3591
                    CHANNELS 3 Zrotation Xrotation Yrotation
                    JOINT lPinky2
                    {
                      OFFSET 3.1477 -1.685 0.8462
                      CHANNELS 3 Zrotation Xrotation Yrotation
                      JOINT lPinky2_End
                      {
                        OFFSET 0.8055 -1.585 0.7955
                        CHANNELS 3 Zrotation Xrotation Yrotation
                        End Site
                        {
                          OFFSET 0.0081 -0.0158 0.008
                        }
                      }
                    }
                  }
                }
              }
            }
          }
        }
        JOINT rCollar
        {
          OFFSET -1.7069 20.075 5.0056
          CHANNELS 3 Zrotation Xrotation Yrotation
          JOINT rShldr
          {
            OFFSET -13.6458 -0.047 -4.849
            CHANNELS 3 Zrotation Xrotation Yrotation
            JOINT rForeArm
            {
              OFFSET -28.3255 -0.9759 2.2888
              CHANNELS 3 Zrotation Xrotation Yrotation
              JOINT rHand
              {
                OFFSET -22.1583 -0.53 10.8316
                CHANNELS 3 Zrotation Xrotation Yrotation
                JOINT rThumb1
                {
                  OFFSET -0.786 0.112 2.5817
                  CHANNELS 3 Zrotation Xrotation Yrotation
                  JOINT rThumb2
                  {
                    OFFSET -0.3601 -0.878 4.2331
                    CHANNELS 3 Zrotation Xrotation Yrotation
                    JOINT rThumb2_End
                    {
                      OFFSET -1.8127 -1.216 2.2227
                      CHANNELS 3 Zrotation Xrotation Yrotation
                      End Site
                      {
                        OFFSET -0.0181 -0.0122 0.0222
                      }
                    }
                  }
                }
                JOINT rCarpal1
                {
                  OFFSET -0.9571 1.114 1.7695
                  CHANNELS 3 Zrotation Xrotation Yrotation
                  JOINT rIndex1
                  {
                    OFFSET -4.1246 0.487 4.1451
                    CHANNELS 3 Zrotation Xrotation Yrotation
                    JOINT rIndex2
                    {
                      OFFSET -3.4052 -1.454 2.7682
                      CHANNELS 3 Zrotation Xrotation Yrotation
                      JOINT rIndex2_End
                      {
                        OFFSET -1.4531 -1.795 1.2713
                        CHANNELS 3 Zrotation Xrotation Yrotation
                        End Site
                        {
                          OFFSET -0.0145 -0.018 0.0127
                        }
                      }
                    }
                  }
                  JOINT rMid1
                  {
                    OFFSET -5.6954 0.21 2.1184
                    CHANNELS 3 Zrotation Xrotation Yrotation
                    JOINT rMid2
                    {
                      OFFSET -3.9766 -1.54 2.3863
                      CHANNELS 3 Zrotation Xrotation Yrotation
                      JOINT rMid2_End
                      {
                        OFFSET -1.4042 -1.926 1.125
                        CHANNELS 3 Zrotation Xrotation Yrotation
                        End Site
                        {
                          OFFSET -0.014 -0.0193 0.0113
                        }
                      }
                    }
                  }
                }
                JOINT rCarpal2
                {
                  OFFSET -2.0956 0.66 -0.3894
                  CHANNELS 3 Zrotation Xrotation Yrotation
                  JOINT rRing1
                  {
                    OFFSET -5.0395 -0.09 2.4971
                    CHANNELS 3 Zrotation Xrotation Yrotation
                    JOINT rRing2
                    {
                      OFFSET -3.7921 -1.552 1.4806
                      CHANNELS 3 Zrotation Xrotation Yrotation
                      JOINT rRing2_End
                      {
                        OFFSET -1.4655 -1.808 0.9609
                        CHANNELS 3 Zrotation Xrotation Yrotation
                        End Site
                        {
                          OFFSET -0.0147 -0.0181 0.0096
                        }
                      }
                    }
                  }
                  JOINT rPinky1
                  {
                    OFFSET -4.9141 -1.269 0.3592
                    CHANNELS 3 Zrotation Xrotation Yrotation
                    JOINT rPinky2
                    {
                      OFFSET -3.1477 -1.685 0.8462
                      CHANNELS 3 Zrotation Xrotation Yrotation
                      JOINT rPinky2_End
                      {
                        OFFSET -0.8055 -1.585 0.7955
                        CHANNELS 3 Zrotation Xrotation Yrotation
                        End Site
                        {
                          OFFSET -0.0081 -0.0158 0.008
                        }
                      }
                    }
                  }
                }
              }
            }
          }
        }
      }
    }
  }
  JOINT lThigh
  {
    OFFSET 8.367 -8.2066 0.5982
    CHANNELS 3 Zrotation Xrotation Yrotation
    JOINT lShin
    {
      OFFSET 2.1923 -43.463 -0.4932
      CHANNELS 3 Zrotation Xrotation Yrotation
      JOINT lFoot
      {
        OFFSET 0.7333 -45.8593 -2.6451
        CHANNELS 3 Zrotation Xrotation Yrotation
        End Site
        {
          OFFSET 2.6618 -4.2699 12.3931
        }
      }
    }
  }
  JOINT rThigh
  {
    OFFSET -8.367 -8.2066 0.5982
    CHANNELS 3 Zrotation Xrotation Yrotation
    JOINT rShin
    {
      OFFSET -2.1923 -43.463 -0.4931
      CHANNELS 3 Zrotation Xrotation Yrotation
      JOINT rFoot
      {
        OFFSET -0.7333 -45.8593 -2.6451
        CHANNELS 3 Zrotation Xrotation Yrotation
        End Site
        {
          OFFSET -2.6618 -4.2699 12.3931
        }
      }
    }
  }
}
MOTION
Frames:	4
Frame Time:	0.0333333
0 91.7903 2.51682 0 0 -0 0 0 -0 0 0 -0 0 0 -0 0 0 -0 0 0 -0 0 0 -0 1.66051 0.0835086 5.75766 -0.0175111 0.895433 15.7816 7.95139e-016 -1.98785e-016 -0 5.46658e-016 -3.97569e-016 -0 5.96354e-016 0 -0 3.97569e-016 1.98785e-016 9.54166e-015 1.49089e-016 -3.97569e-016 -0 6.4605e-016 0 3.18055e-015 5.96354e-016 0 3.18055e-015 8.94531e-016 -1.98785e-016 6.36111e-015 6.4605e-016 0 3.18055e-015 5.96354e-016 0 3.18055e-015 8.94531e-016 -1.98785e-016 6.36111e-015 1.49089e-016 -3.97569e-016 -0 6.4605e-016 0 3.18055e-015 5.96354e-016 0 3.18055e-015 8.94531e-016 -1.98785e-016 6.36111e-015 6.4605e-016 0 3.18055e-015 5.96354e-016 0 3.18055e-015 8.94531e-016 -1.98785e-016 6.36111e-015 0 0 -0 -1.4496 0.0636048 -5.0245 -1.74811 1.20616 -16.8394 -1.19271e-015 1.98785e-016 -3.18055e-015 -3.97569e-016 1.98785e-016 -3.18055e-015 -2.98177e-016 1.98785e-016 -3.18055e-015 -2.98177e-016 3.97569e-016 -0 4.96962e-016 0 -6.36111e-015 -9.93923e-017 3.97569e-016 -0 -8.94531e-016 5.96354e-016 -0 -3.97569e-016 3.97569e-016 -0 -9.93923e-017 3.97569e-016 -0 -8.94531e-016 5.96354e-016 -0 -3.97569e-016 3.97569e-016 -0 4.96962e-016 0 -6.36111e-015 -9.93923e-017 3.97569e-016 -0 -8.94531e-016 5.96354e-016 -0 -3.97569e-016 3.97569e-016 -0 -9.93923e-017 3.97569e-016 -0 -8.94531e-016 5.96354e-016 -0 -3.97569e-016 3.97569e-016 -0 -4.66111 -0.998717 0.12318 0.00986924 1.54847 0.176523 4.65186 -0.572283 -0.254274 4.66111 -0.998765 -0.123176 -0.00986867 1.54869 -0.176537 -4.65186 -0.572453 0.25427 
32.0073 27.3203 -8.64778 -0 -66.6681 -0 -1.38755 11.6903 -1.01256 -2.64427 23.4007 -1.78632 -2.64427 23.4007 -1.78632 -7.01383e-005 14.1069 9.49285e-006 8.89639e-007 4.51471 -2.43251e-006 -9.61762 2.32152 -1.56543 -58.3608 -7.47517 -34.3413 0.518826 13.8134 10.4144 -2.61419 5.4615 20.4982 -1.28853e-006 1.09394e-006 -5.35901e-007 -2.18481e-006 3.33624e-006 -4.09045e-006 -7.38526e-008 3.59359e-007 2.169e-007 -3.97569e-015 0 -1.59028e-015 -1.28853e-006 1.09394e-006 -5.35901e-007 -2.18481e-006 3.33624e-006 -4.09045e-006 -7.38526e-008 3.59359e-007 2.169e-007 -1.28853e-006 1.09394e-006 -5.35901e-007 -2.18481e-006 3.33624e-006 -4.09045e-006 -7.38526e-008 3.59359e-007 2.169e-007 -3.97569e-015 0 -1.59028e-015 -1.28853e-006 1.09394e-006 -5.35901e-007 -2.18481e-006 3.33624e-006 -4.09045e-006 -7.38526e-008 3.59359e-007 2.169e-007 -1.28853e-006 1.09394e-006 -5.35901e-007 -2.18481e-006 3.33624e-006 -4.09045e-006 -7.38526e-008 3.59359e-007 2.169e-007 -0.241733 -7.18301 3.22243 45.7013 24.1896 11.7904 40.8061 22.305 33.6073 -31.2432 3.02767 3.36274 3.18055e-015 -4.77083e-015 -0 1.76556e-031 3.18055e-015 -3.18055e-015 -9.54166e-015 -7.95139e-015 3.18055e-015 6.36111e-015 -3.18055e-015 -0 0 0 -3.18055e-015 -3.18055e-015 -3.18055e-015 -3.18055e-015 -6.36111e-015 0 6.36111e-015 0 0 -3.18055e-015 -3.18055e-015 -3.18055e-015 -3.18055e-015 -6.36111e-015 0 6.36111e-015 6.36111e-015 -3.18055e-015 -0 0 0 -3.18055e-015 -3.18055e-015 -3.18055e-015 -3.18055e-015 -6.36111e-015 0 6.36111e-015 0 0 -3.18055e-015 -3.18055e-015 -3.18055e-015 -3.18055e-015 -6.36111e-015 0 6.36111e-015 28.5508 -9.09123 -2.17801 -24.7843 24.0107 12.3734 18.5247 34.8066 8.91246 -29.8531 -35.0418 -2.30088 0.831365 71.0566 -4.26456 -29.0872 26.756 11.5634 
45.6523 -4.42593 -10.3404 -180 -83.3313 -180 -2.21532 16.9356 -1.31045 -4.30807 33.9077 -2.04236 -4.30806 33.9077 -2.04236 -3.95245e-006 20.2713 2.11124e-005 -7.60674e-008 6.18038 9.36748e-007 -13.7756 3.18064 -2.29435 -88.1657 -7.79587 -52.6554 1.57087 19.4639 7.67136 -4.75082 7.76819 29.7557 3.54034e-007 1.64779e-006 -2.90275e-006 1.21895e-006 -2.24753e-006 -1.88574e-006 8.11273e-007 -1.75822e-006 -1.67539e-006 0 0 -3.18055e-015 3.54034e-007 1.64779e-006 -2.90275e-006 1.21895e-006 -2.24753e-006 -1.88574e-006 8.11273e-007 -1.75822e-006 -1.67539e-006 3.54034e-007 1.64779e-006 -2.90275e-006 1.21895e-006 -2.24753e-006 -1.88574e-006 8.11273e-007 -1.75822e-006 -1.67539e-006 0 0 -3.18055e-015 3.54034e-007 1.64779e-006 -2.90275e-006 1.21895e-006 -2.24753e-006 -1.88574e-006 8.11273e-007 -1.75822e-006 -1.67539e-006 3.54034e-007 1.64779e-006 -2.90275e-006 1.21895e-006 -2.24753e-006 -1.88574e-006 8.11273e-007 -1.75822e-006 -1.67539e-006 -0.0828846 -10.3972 4.71338 61.6443 33.4013 21.8286 53.5973 17.351 54.9753 -45.9015 4.87703 3.98853 1.59028e-015 -7.15625e-015 2.38542e-015 -0 -1.98785e-015 -0 1.59028e-015 -5.96354e-015 1.59028e-015 -3.18055e-015 -2.98177e-015 1.59028e-015 1.59028e-015 -5.96354e-015 -0 1.59028e-015 -2.38542e-015 -7.95139e-016 1.59028e-015 -6.55989e-015 -0 1.59028e-015 -5.96354e-015 -0 1.59028e-015 -2.38542e-015 -7.95139e-016 1.59028e-015 -6.55989e-015 -0 -3.18055e-015 -2.98177e-015 1.59028e-015 1.59028e-015 -5.96354e-015 -0 1.59028e-015 -2.38542e-015 -7.95139e-016 1.59028e-015 -6.55989e-015 -0 1.59028e-015 -5.96354e-015 -0 1.59028e-015 -2.38542e-015 -7.95139e-016 1.59028e-015 -6.55989e-015 -0 44.2866 -12.7396 -3.13337 -41.1384 35.3543 19.0489 19.3391 49.1237 16.6538 -44.2147 -50.3688 -5.27315 179.727 76.6722 173.337 -44.0134 37.62 18.2332 
42.6732 2.64098 -10.2876 -180 -89.9981 -180 -2.02421 15.8914 -1.24703 -3.91281 31.8154 -2.00538 -3.91281 31.8154 -2.00538 -5.10648e-005 18.4942 4.6823e-006 -2.91367e-007 4.99694 -8.49931e-007 -12.5673 2.58044 -2.18187 -81.5552 -7.83989 -48.614 1.28917 18.22 8.30581 -4.1809 7.1428 27.5491 -4.20316e-006 -3.8264e-006 -1.83397e-006 1.59028e-015 0 -0 2.46599e-007 -6.17869e-007 -5.34343e-007 0 0 -3.18055e-015 -4.20316e-006 -3.8264e-006 -1.83397e-006 -4.77083e-015 -3.18055e-015 3.18055e-015 2.46599e-007 -6.17869e-007 -5.34343e-007 -4.20316e-006 -3.8264e-006 -1.83397e-006 -4.77083e-015 -3.18055e-015 3.18055e-015 2.46599e-007 -6.17869e-007 -5.34343e-007 0 0 -3.18055e-015 -4.20316e-006 -3.8264e-006 -1.83397e-006 -4.77083e-015 -3.18055e-015 3.18055e-015 2.46599e-007 -6.17869e-007 -5.34343e-007 -4.20316e-006 -3.8264e-006 -1.83397e-006 -4.77083e-015 -3.18055e-015 3.18055e-015 2.46599e-007 -6.17869e-007 -5.34343e-007 -0.132891 -9.6844 4.37862 58.4347 31.5072 19.3894 50.3484 19.4853 51.284 -43.0611 4.1263 5.29138 -1.59028e-015 5.56597e-015 3.18055e-015 -1.59028e-015 7.95139e-016 -1.59028e-015 -4.77083e-015 0 1.59028e-015 1.59028e-015 5.96354e-015 -0 6.36111e-015 -2.70347e-014 6.36111e-015 -6.36111e-015 1.19271e-015 4.77083e-015 -4.77083e-015 -3.97569e-016 3.18055e-015 6.36111e-015 -2.70347e-014 6.36111e-015 -6.36111e-015 1.19271e-015 4.77083e-015 -4.77083e-015 -3.97569e-016 3.18055e-015 1.59028e-015 5.96354e-015 -0 6.36111e-015 -2.70347e-014 6.36111e-015 -6.36111e-015 1.19271e-015 4.77083e-015 -4.77083e-015 -3.97569e-016 3.18055e-015 6.36111e-015 -2.70347e-014 6.36111e-015 -6.36111e-015 1.19271e-015 4.77083e-015 -4.77083e-015 -3.97569e-016 3.18055e-015 40.6098 -11.8228 -2.95403 -36.87 32.6244 17.2479 19.6798 46.1858 14.4484 -40.892 -46.9351 -4.17976 178.451 83.9368 175.662 -40.4947 35.3421 16.7263 
